<svg xmlns="http://www.w3.org/2000/svg" fill="none" height="38" viewBox="0 0 38 38" width="38"><path d="m7.85925 33.3996c.83836 0 1.67672-.3945 2.41645-1.1343 1.085-1.0849 1.874-2.5151 2.7617-4.2411.789-1.5288 1.726-3.1562 3.1562-5.0302.5918.3945 1.2822.6904 2.0219.8384-.3452 2.3178-.8383 4.0932-1.3808 5.7699-.5918 1.874-1.0356 3.4028-1.0356 4.9315 0 2.1206 1.2328 3.3535 3.2055 3.3535 1.9726 0 3.2055-1.2329 3.2055-3.3535 0-1.5287-.4439-3.0575-1.0357-4.9315-.5424-1.6767-.9863-3.4521-1.3315-5.7699.7398-.0987 1.4302-.3946 2.022-.8384 1.3808 1.9233 2.3178 3.5014 3.1069 5.0302.8876 1.726 1.6767 3.1562 2.7616 4.2411.7398.7398 1.5781 1.1343 2.4165 1.1343.789 0 1.5288-.3452 2.2192-1.0356.6904-.6905 1.0356-1.4302 1.0356-2.2192 0-.8384-.3945-1.6768-1.1342-2.4165-1.085-1.085-2.5151-1.874-4.2412-2.7617-1.5288-.789-3.1069-1.726-5.0302-3.1069.4439-.5917.6904-1.2822.8384-2.0219 2.3178.3452 4.0932.7891 5.7699 1.3315 1.874.5918 3.4028 1.0357 4.9316 1.0357 2.1205 0 3.3534-1.2329 3.3534-3.2056 0-1.9726-1.2329-3.2055-3.3534-3.2055-1.5288 0-3.0576.4439-4.9316 1.0357-1.6767.5424-3.4521 1.0356-5.7699 1.3808-.148-.7891-.4438-1.4302-.8384-2.0219 1.874-1.4302 3.5014-2.3672 5.0302-3.1562 1.7261-.8877 3.1562-1.6768 4.2412-2.7617.7397-.73975 1.1342-1.57812 1.1342-2.41648 0-.78905-.3452-1.52879-1.0356-2.2192-.6904-.69042-1.4302-1.03563-2.2192-1.03563-.8384 0-1.6767.39453-2.4165 1.13426-1.0849 1.08494-1.874 2.51509-2.7616 4.24114-.7891 1.52881-1.7261 3.15621-3.1562 5.03021-.5425-.3945-1.2329-.6904-1.9727-.8384.3452-2.3178.7891-4.0932 1.3315-5.76991.5918-1.87399 1.0357-3.40277 1.0357-4.93156 0-2.12057-1.2329-3.353458-3.2055-3.353458-1.9727 0-3.2055 1.232888-3.2055 3.353458 0 1.52879.4438 3.05757 1.0356 4.93156.5425 1.67671 1.0356 3.45211 1.3808 5.81921-.7397.0987-1.4301.3946-2.0219.8384-1.4302-1.9233-2.3672-3.5507-3.1562-5.07951-.8877-1.72605-1.6767-3.1562-2.7617-4.24114-.73973-.73973-1.57809-1.13426-2.41645-1.13426-.78905 0-1.52879.34521-2.21921 1.03563-.69041.69041-1.03562 1.43015-1.03562 2.2192 0 .83836.39452 1.67673 1.13426 2.41648 1.08494 1.0849 2.51509 1.874 4.24113 2.7617 1.52879.789 3.15619 1.726 5.07949 3.1562-.4438.5917-.7397 1.2822-.8383 2.0219-2.3672-.3452-4.1426-.8384-5.81928-1.3808-1.874-.5918-3.40278-1.0357-4.93156-1.0357-2.12057 0-3.353461 1.2329-3.353461 3.2055 0 1.9727 1.232891 3.2056 3.353461 3.2056 1.52878 0 3.05756-.4439 4.93156-1.0357 1.67668-.5424 3.45208-.9863 5.76988-1.3315.148.7397.4439 1.4302.8384 1.9726-1.874 1.4302-3.5014 2.3672-5.03019 3.1562-1.72604.8877-3.15619 1.6767-4.24113 2.7617-.73974.7397-1.13426 1.5781-1.13426 2.4165 0 .789.34521 1.5287 1.03562 2.2192.69042.6904 1.43016 1.0356 2.21921 1.0356z" fill="#070707"></path></svg>