<svg width="162" height="20" viewBox="0 0 162 20" fill="none" xmlns="http://www.w3.org/2000/svg">
    <g clip-path="url(#ik29e90a)" fill="#070707">
        <path d="M9.245 12.272 3.78 1.32H.545V18.68h3.438V9.324l4.558 9.355h1.41l4.557-9.355v9.355h3.438V1.32H14.71L9.245 12.272ZM39.97 2.104C38.712 1.35 37.198.968 35.47.968c-1.728 0-3.243.382-4.501 1.136-1.26.755-2.243 1.825-2.922 3.18C27.37 6.634 27.028 8.22 27.028 10c0 1.78.343 3.367 1.019 4.715.68 1.357 1.662 2.426 2.922 3.18 1.258.755 2.772 1.137 4.5 1.137 1.729 0 3.243-.383 4.501-1.136 1.26-.755 2.243-1.825 2.922-3.18.676-1.349 1.019-2.936 1.019-4.716 0-1.78-.343-3.367-1.019-4.715-.68-1.356-1.662-2.426-2.922-3.18ZM40.073 10c0 1.14-.175 2.147-.519 2.993-.339.832-.851 1.48-1.525 1.93-.672.45-1.53.67-2.556.656-1.027-.015-1.89-.25-2.563-.702-.674-.45-1.187-1.092-1.525-1.909-.345-.83-.52-1.828-.52-2.968s.176-2.147.52-2.993c.339-.831.851-1.481 1.525-1.931.65-.436 1.478-.656 2.46-.656h.096c1.026.016 1.889.252 2.563.703.674.45 1.187 1.093 1.525 1.909.345.83.52 1.829.52 2.968ZM64.61 2.886c-.98-.807-2.187-1.301-3.588-1.47-.39-.048-.802-.076-1.224-.084a59.605 59.605 0 0 0-.828-.012h-5.71V18.68h5.71c.134 0 .41-.004.828-.012.42-.007.831-.036 1.223-.084 1.402-.168 2.61-.663 3.589-1.47.974-.803 1.725-1.836 2.23-3.07.504-1.228.76-2.588.76-4.043s-.256-2.815-.76-4.043c-.505-1.234-1.256-2.267-2.23-3.07Zm-7.654 1.887h2.014c.21 0 .495.004.854.012.345.007.66.04.939.101.662.13 1.219.443 1.654.928.447.498.786 1.118 1.007 1.843A8.03 8.03 0 0 1 63.762 10c0 .781-.11 1.55-.327 2.286-.213.725-.547 1.353-.99 1.867-.432.5-.998.822-1.68.96a6.234 6.234 0 0 1-.943.096c-.358.012-.642.018-.852.018h-2.014V4.773ZM76.888 18.679H88.4V15.25h-7.864v-3.9h6.452V7.921h-6.452V4.749H88.4V1.32H76.888V18.68ZM110.519 10.897c.73-1.04 1.1-2.306 1.1-3.763 0-.972-.16-1.867-.475-2.66a4.755 4.755 0 0 0-1.5-2.014c-.675-.53-1.548-.881-2.589-1.042a5.87 5.87 0 0 0-.777-.08 16.795 16.795 0 0 0-.675-.018h-7.381V18.68h3.649v-5.732h3.209l2.785 5.732h4.123l-3.119-6.383a4.334 4.334 0 0 0 1.65-1.4Zm-8.648-6.148h3.591c.158 0 .334.008.523.023.182.015.35.044.501.087.385.105.684.28.889.522.213.251.362.534.443.84.085.322.128.629.128.913 0 .284-.043.59-.128.912-.081.307-.23.59-.443.84-.204.242-.503.418-.892.523-.15.043-.317.072-.498.087a6.462 6.462 0 0 1-.523.022h-3.591V4.75ZM131.792 12.069 124.767 1.32h-3.594V18.68h3.696V7.931l7.025 10.748h3.595V1.32h-3.697V12.07ZM160.436 5.285c-.68-1.356-1.663-2.426-2.922-3.18-1.258-.755-2.773-1.137-4.501-1.137-1.728 0-3.242.382-4.5 1.136-1.26.755-2.243 1.825-2.922 3.18-.676 1.349-1.019 2.935-1.019 4.716 0 1.78.343 3.367 1.019 4.715.679 1.356 1.662 2.426 2.922 3.18 1.258.755 2.772 1.137 4.5 1.137 1.729 0 3.243-.383 4.501-1.136 1.259-.755 2.242-1.825 2.922-3.18.676-1.349 1.019-2.936 1.019-4.716 0-1.78-.343-3.367-1.019-4.715ZM157.617 10c0 1.14-.175 2.147-.519 2.993-.339.832-.852 1.481-1.525 1.93-.672.45-1.532.668-2.556.656-1.027-.015-1.889-.25-2.564-.702-.673-.45-1.186-1.093-1.524-1.909-.345-.83-.519-1.828-.519-2.968s.174-2.147.519-2.993c.338-.831.851-1.48 1.524-1.931.652-.435 1.479-.656 2.46-.656h.097c1.026.016 1.889.252 2.563.703.674.45 1.187 1.093 1.525 1.909.345.83.519 1.829.519 2.968Z"/>
    </g>
    <defs>
        <clipPath id="ik29e90a">
            <path fill="#fff" d="M0 0h162v20H0z"/>
        </clipPath>
    </defs>
</svg>
